HIERARCHY
ROOT Hips
{
  OFFSET 0 89.5177 0.535
  CHANNELS 6 Xposition Yposition Zposition Zrotation Xrotation Yrotation
  JOINT Spine
  {
    OFFSET 12.0259 -0.162855 1.69034e-005
    CHANNELS 3 Zrotation Xrotation Yrotation
    JOINT Spine1
    {
      OFFSET 15.3169 -0.0121922 0
      CHANNELS 3 Zrotation Xrotation Yrotation
      JOINT Spine2
      {
        OFFSET 15.3176 -0.0121908 0
        CHANNELS 3 Zrotation Xrotation Yrotation
        JOINT Neck
        {
          OFFSET 19.9142 1.56338 0
          CHANNELS 3 Zrotation Xrotation Yrotation
          JOINT Head
          {
            OFFSET 6.92651 0 0
            CHANNELS 3 Zrotation Xrotation Yrotation
            End Site
            {
              OFFSET 20.7666 0 0
            }
          }
          JOINT LeftShoulder
          {
            OFFSET -6.20654 0.708824 7.28219
            CHANNELS 3 Zrotation Xrotation Yrotation
            JOINT LeftArm
            {
              OFFSET 14.108 0 -1.52588e-005
              CHANNELS 3 Zrotation Xrotation Yrotation
              JOINT LeftForeArm
              {
                OFFSET 28.5802 0 0
                CHANNELS 3 Zrotation Xrotation Yrotation
                JOINT LeftHand
                {
                  OFFSET 27.092 0 0
                  CHANNELS 3 Zrotation Xrotation Yrotation
                  End Site
                  {
                    OFFSET 9.55928 -0.186424 0.145352
                  }
                }
              }
            }
          }
          JOINT RightShoulder
          {
            OFFSET -6.20654 0.708866 -7.28218
            CHANNELS 3 Zrotation Xrotation Yrotation
            JOINT RightArm
            {
              OFFSET 14.108 0 1.52588e-005
              CHANNELS 3 Zrotation Xrotation Yrotation
              JOINT RightForeArm
              {
                OFFSET 28.5802 0 0
                CHANNELS 3 Zrotation Xrotation Yrotation
                JOINT RightHand
                {
                  OFFSET 27.092 0 0
                  CHANNELS 3 Zrotation Xrotation Yrotation
                  End Site
                  {
                    OFFSET 9.55929 -0.186417 -0.145354
                  }
                }
              }
            }
          }
        }
      }
    }
  }
  JOINT LeftUpLeg
  {
    OFFSET 0.005 -0.535 8.837
    CHANNELS 3 Zrotation Xrotation Yrotation
    JOINT LeftLeg
    {
      OFFSET 39.9035 0 0
      CHANNELS 3 Zrotation Xrotation Yrotation
      JOINT LeftFoot
      {
        OFFSET 39.6689 0 0
        CHANNELS 3 Zrotation Xrotation Yrotation
        JOINT LeftToe
        {
          OFFSET 10.1624 13.6296 0
          CHANNELS 3 Zrotation Xrotation Yrotation
          End Site
          {
            OFFSET 8.38147 0 0
          }
        }
      }
    }
  }
  JOINT RightUpLeg
  {
    OFFSET 0.005 -0.535 -8.837
    CHANNELS 3 Zrotation Xrotation Yrotation
    JOINT RightLeg
    {
      OFFSET 39.9035 0 0
      CHANNELS 3 Zrotation Xrotation Yrotation
      JOINT RightFoot
      {
        OFFSET 39.6689 0 0
        CHANNELS 3 Zrotation Xrotation Yrotation
        JOINT RightToe
        {
          OFFSET 10.1624 13.6296 0
          CHANNELS 3 Zrotation Xrotation Yrotation
          End Site
          {
            OFFSET 8.38147 0 0
          }
        }
      }
    }
  }
}
MOTION
Frames:	9
Frame Time:	0.0333333
549.446 85.5835 -162.638 120.764 -74.5027 29.7923 -1.29706 0.120739 -0.820827 -2.59226 0.260479 -1.63853 -2.59226 0.260479 -1.63854 -8.30743e-012 -9.0191e-006 -5.27751e-005 4.92941 50.887 -9.15521 179.906 -13.6618 -90.3995 -41.0941 -54.1301 -6.90788 -1.34499e-005 0 -7.95139e-016 -40.1064 -20.6145 -26.851 179.528 5.47804 94.9343 55.7411 63.5317 -65.6135 -1.03906 3.18055e-015 -0 -35.8059 18.2654 22.3139 -17.5022 -3.13894 176.885 -33.05 0 -1.59028e-015 23.5358 4.05792 2.57406 90 0 7.95139e-016 -16.8623 -7.1982 -177.151 -32.1061 -7.95139e-016 3.97569e-016 23.0017 -2.08801 -3.89516 90 1.21329e-020 -1.59028e-015 
549.515 85.5678 -162.711 121.301 -74.7561 30.2925 -1.29145 0.109381 -0.816135 -2.58121 0.23758 -1.62942 -2.58121 0.23758 -1.62943 -8.30688e-012 -9.0191e-006 -5.27751e-005 4.29697 50.5249 -8.60661 179.884 -13.6265 -90.4913 -40.7466 -53.9036 -6.77771 -1.35011e-005 3.18055e-015 -7.95139e-016 -40.0962 -20.9364 -27.083 179.52 5.48337 95.0055 56.0272 63.6172 -65.9662 -1.10509 -3.18055e-015 -6.36111e-015 -35.8985 18.0812 22.4078 -17.4623 -2.90634 177.052 -33.1344 1.59028e-015 7.95139e-016 23.6541 4.07868 2.50824 90 0 -0 -16.8344 -7.02653 -176.998 -32.1022 3.18056e-015 -1.98785e-015 23.0053 -2.12882 -3.95969 90 9.85794e-021 1.59028e-015 
549.581 85.5579 -162.763 122.068 -75.0688 31.0159 -1.28515 0.115133 -0.801068 -2.56867 0.244123 -1.59922 -2.56867 0.244123 -1.59923 -8.30743e-012 -9.0191e-006 -5.27751e-005 3.8601 50.6878 -8.30185 179.867 -13.5708 -90.566 -40.4402 -53.7295 -6.62803 -1.3551e-005 3.18055e-015 7.95139e-016 -40.1831 -21.2269 -27.3239 179.519 5.50685 95.0011 55.9873 63.6937 -66.0628 -1.26825 0 -3.18055e-015 -35.8311 17.808 22.2411 -17.403 -2.68735 177.208 -33.1241 1.59028e-015 -0 23.586 3.9948 2.4715 90 3.10601e-018 7.95139e-016 -16.8343 -6.79835 -176.835 -32.0815 0 1.19271e-015 22.9765 -2.19713 -4.01679 90 -3.18487e-020 1.59028e-015 
549.649 85.5448 -162.811 122.887 -75.3567 31.7822 -1.28096 0.120885 -0.783143 -2.56015 0.259699 -1.56321 -2.56015 0.259699 -1.56322 -8.30758e-012 -9.0191e-006 -5.27751e-005 3.55578 51.0485 -8.03879 179.866 -13.4993 -90.5745 -40.4272 -53.3597 -6.67145 -1.35997e-005 3.18055e-015 -7.95139e-016 -40.2308 -21.4296 -27.5452 179.52 5.50861 94.9892 55.9523 63.6716 -66.1315 -1.44755 -3.18055e-015 3.18055e-015 -35.7236 17.7319 21.7847 -17.3804 -2.49578 177.368 -33.147 4.77083e-015 1.59028e-015 23.5477 3.89675 2.43142 90 0 -0 -16.8507 -6.66386 -176.68 -32.0671 -7.95139e-016 3.97569e-016 22.9497 -2.33036 -4.07424 90 -4.92897e-021 -3.18055e-015 
549.717 85.5331 -162.845 123.693 -75.5812 32.5322 -1.27894 0.113252 -0.760731 -2.54618 0.243841 -1.51857 -2.54618 0.243841 -1.51858 -8.30678e-012 -9.0191e-006 -5.27751e-005 3.39208 51.4098 -8.00337 179.845 -13.5049 -90.6636 -40.2932 -53.3012 -6.4791 -1.36472e-005 -3.18055e-015 -0 -40.3314 -21.51 -27.6686 179.517 5.50138 95.0246 56.3863 63.7321 -66.6631 -1.34906 6.36111e-015 -0 -35.818 17.737 22.0473 -17.4178 -2.24794 177.532 -33.2213 -3.18055e-015 -1.59028e-015 23.6118 3.90465 2.38333 90 0 -0 -16.9024 -6.53207 -176.533 -32.0565 2.38542e-015 -3.97569e-016 22.9187 -2.41727 -4.12916 90 1.47869e-020 -4.77083e-015 
549.775 85.5287 -162.872 124.414 -75.7293 33.2289 -1.2769 0.103184 -0.750323 -2.538 0.223424 -1.49799 -2.538 0.223424 -1.498 -8.30738e-012 -9.0191e-006 -5.27751e-005 3.42831 51.7131 -8.10492 179.838 -13.4756 -90.694 -40.3078 -53.2015 -6.44946 -1.36934e-005 0 -0 -40.2921 -21.5415 -27.6055 179.525 5.46668 94.9696 56.2504 63.6621 -66.5603 -1.27249 3.18055e-015 -0 -35.7748 17.7915 22.2058 -17.4492 -2.11264 177.634 -33.2217 0 7.95139e-016 23.6095 3.84253 2.34116 90 1.1185e-020 7.95139e-016 -16.9688 -6.42305 -176.438 -32.038 -2.38542e-015 3.97569e-016 22.8894 -2.48916 -4.17456 90 2.91947e-020 1.59028e-015 
549.83 85.5283 -162.897 124.994 -75.8132 33.7998 -1.2752 0.0870602 -0.742783 -2.54337 0.191048 -1.48327 -2.54337 0.191048 -1.48328 -8.30728e-012 -9.0191e-006 -5.27751e-005 3.56256 51.937 -8.21515 179.824 -13.4071 -90.7616 -40.3081 -53.2201 -6.39464 -1.37382e-005 -1.27222e-014 -1.59028e-015 -40.2284 -21.4379 -27.4409 179.535 5.41626 94.9137 55.8938 63.4839 -66.1987 -1.16965 3.18055e-015 -0 -35.8073 17.924 22.3687 -17.4893 -2.08805 177.689 -33.2179 0 7.95139e-016 23.6411 3.76373 2.30419 90 -9.70628e-020 -0 -17.0223 -6.34883 -176.362 -32.0036 7.95139e-016 -3.97569e-016 22.8658 -2.52067 -4.22325 90 -7.39346e-021 -1.59028e-015 
549.88 85.528 -162.919 125.413 -75.8494 34.2026 -1.27406 0.0708675 -0.732015 -2.55408 0.158495 -1.46208 -2.55408 0.158496 -1.46209 -8.30758e-012 -9.0191e-006 -5.27751e-005 3.81333 52.1526 -8.34233 179.813 -13.3239 -90.8105 -40.3435 -53.1131 -6.32876 -1.37816e-005 1.59028e-014 -0 -40.1807 -21.3858 -27.3245 179.543 5.39414 94.8449 55.8077 63.3677 -66.0282 -1.06067 0 -0 -35.7185 18.0337 22.5494 -17.5256 -2.10635 177.74 -33.2142 0 -7.95139e-016 23.6724 3.67796 2.26768 90 -1.38094e-020 -7.95139e-016 -17.07 -6.28883 -176.295 -31.9707 7.95139e-016 1.19271e-015 22.8443 -2.52798 -4.26334 90 -7.58303e-022 -1.59028e-015 
549.908 85.5283 -162.949 125.64 -75.8768 34.4156 -1.27382 0.0492412 -0.721297 -2.54692 0.114964 -1.44114 -2.54692 0.114965 -1.44114 -8.30728e-012 -9.0191e-006 -5.27751e-005 4.14219 52.342 -8.56042 179.798 -13.2624 -90.8818 -40.43 -53.1334 -6.30672 -1.38236e-005 6.36111e-015 1.59028e-015 -40.2865 -21.38 -27.3825 179.554 5.36472 94.7548 55.5102 63.2256 -65.6379 -0.948537 -3.18055e-015 -0 -35.7184 18.2082 22.729 -17.5274 -2.02512 177.798 -33.2147 1.59028e-015 -7.95139e-016 23.6957 3.71354 2.24001 90 -9.70628e-020 -0 -17.0665 -6.27798 -176.253 -31.9333 7.95139e-016 3.97569e-016 22.8357 -2.54899 -4.28564 90 2.12325e-020 -1.59028e-015 
